<svg xmlns="http://www.w3.org/2000/svg" width="51" height="37" viewBox="0 0 51 37"><g><g><path fill="#ef5b5b" d="M47.617 16.86l-2.076-5.814 5.432-6.774-7.516 4.545L37.63 6.28 51 4.256l-.022.013zm-6.954-1.744c.211 1.098.327 2.226.327 3.383 0 10.217-8.62 18.5-19.254 18.5-4.087 0-7.875-1.227-10.992-3.315 11.628 3.003 24.581-11.667 29.92-18.568zM8.748 27.273a12.964 12.964 0 0 1-2.807-.76 14.022 14.022 0 0 1-2.003-.95l-.02-.049C2.493 24.644 1.05 23.36 0 21.466c0 0 1.519 1.424 2.977 1.21a17.82 17.82 0 0 1-.495-4.177C2.482 8.281 11.102 0 21.736 0c8.38 0 15.505 5.145 18.151 12.325C25.34 25.503 15.393 28.378 8.747 27.273z"/></g></g></svg>